<svg width="63" height="63" viewBox="0 0 63 63" fill="none" xmlns="http://www.w3.org/2000/svg">
<rect x="62.6987" y="43.7295" width="47.6665" height="47.6665" rx="23.8333" transform="rotate(156.55 62.6987 43.7295)" fill="url(#paint0_linear)"/>
<g filter="url(#filter0_dd)">
<path fill-rule="evenodd" clip-rule="evenodd" d="M20.8637 25.8459L29.4677 29.8858L28.0996 38.0609C25.12 37.7229 22.518 36.8715 20.5682 35.7278C17.9649 34.2009 16.8867 32.4095 16.8867 30.871C16.8867 29.3325 17.9649 27.5411 20.5682 26.0141C20.6651 25.9573 20.7636 25.9012 20.8637 25.8459ZM26.1733 24.0779L28.361 27.4325L22.9474 24.8906C23.9176 24.5246 24.9789 24.2201 26.1128 23.9919V24.1611L26.1733 24.0779ZM30.9807 31.4494L29.8515 38.1971C30.2163 38.2127 30.5856 38.2206 30.9589 38.2206C32.4335 38.2206 33.8454 38.0961 35.1674 37.8689L30.9807 31.4494ZM36.5127 36.7276C37.0086 35.977 37.4765 35.1742 37.9075 34.3231C38.2432 33.6601 38.542 32.9963 38.805 32.3364L32.3463 30.3391L36.5127 36.7276ZM31.6886 28.3036L39.3917 30.6857C40.1488 28.2654 40.4212 25.9498 40.2627 23.9706C40.0929 21.8506 39.4613 20.3054 38.5766 19.3131L31.6886 28.3036ZM31.1161 19.3392C33.5722 17.8217 35.6782 17.617 37.1691 18.2722L30.3129 27.2212L27.3226 22.6361C28.532 21.2474 29.8287 20.1346 31.1161 19.3392ZM30.9589 40.4086C31.8511 40.4086 32.7265 40.3664 33.5796 40.2854C32.7216 41.1126 31.8371 41.8048 30.9569 42.3486C28.3956 43.9311 26.215 44.0859 24.7157 43.3268C23.4079 42.6646 22.3539 41.1728 21.9464 38.8107C24.526 39.8202 27.6253 40.4086 30.9589 40.4086ZM19.6209 37.7818H19.7526C16.6393 36.0443 14.6987 33.5906 14.6987 30.871C14.6987 26.8343 18.9741 23.3834 25.0137 21.9911C29.0807 16.8803 34.4602 14.4416 38.3457 16.4091C40.8615 17.683 42.2591 20.5552 42.4669 24.133C45.4034 25.8584 47.2191 28.2403 47.2191 30.871C47.2191 34.8769 43.0086 38.3061 37.0418 39.7188C32.9768 44.8145 27.6072 47.2433 23.7273 45.2787C21.2649 44.0319 19.8737 41.2539 19.6209 37.7818ZM45.0311 30.871C45.0311 29.5631 44.252 28.0726 42.4193 26.7171C42.1749 29.438 41.33 32.4073 39.8595 35.3115C39.5955 35.8328 39.3179 36.3391 39.0282 36.8295C39.8766 36.5061 40.6545 36.1355 41.3496 35.7278C43.9529 34.2009 45.0311 32.4095 45.0311 30.871Z" fill="white"/>
</g>
<defs>
<filter id="filter0_dd" x="8.62373" y="9.19199" width="45.15" height="45.15" filterUnits="userSpaceOnUse" color-interpolation-filters="sRGB">
<feFlood flood-opacity="0" result="BackgroundImageFix"/>
<feColorMatrix in="SourceAlpha" type="matrix" values="0 0 0 0 0 0 0 0 0 0 0 0 0 0 0 0 0 0 127 0"/>
<feMorphology radius="0.5375" operator="dilate" in="SourceAlpha" result="effect1_dropShadow"/>
<feOffset/>
<feColorMatrix type="matrix" values="0 0 0 0 0 0 0 0 0 0 0 0 0 0 0 0 0 0 0.05 0"/>
<feBlend mode="normal" in2="BackgroundImageFix" result="effect1_dropShadow"/>
<feColorMatrix in="SourceAlpha" type="matrix" values="0 0 0 0 0 0 0 0 0 0 0 0 0 0 0 0 0 0 127 0"/>
<feOffset dy="0.5375"/>
<feGaussianBlur stdDeviation="0.5375"/>
<feColorMatrix type="matrix" values="0 0 0 0 0 0 0 0 0 0 0 0 0 0 0 0 0 0 0.12 0"/>
<feBlend mode="normal" in2="effect1_dropShadow" result="effect2_dropShadow"/>
<feBlend mode="normal" in="SourceGraphic" in2="effect2_dropShadow" result="shape"/>
</filter>
<linearGradient id="paint0_linear" x1="86.532" y1="43.7295" x2="86.532" y2="91.396" gradientUnits="userSpaceOnUse">
<stop stop-color="#0F426C"/>
<stop offset="1" stop-color="#3A97E4"/>
</linearGradient>
</defs>
</svg>
